# File created by Blade
# Date/Time:  Wed Jan 28 16:58:26 2015
#---------------------------------------------------------
:version 1.10
:name HOM
:units
  mass 1.0
  length 1.000000
  angle deg
:documentation
     Acclaim Skeleton File
:root
   axis xyz
   order TX TY TZ RX RY RZ
   position 0.000000 0.000000 0.000000
   orientation 0 0 0
:bonedata
   begin
      id 1
      name Spine_dum
      direction 0.000000 1.000000 0.000000
      length 9.621153
      axis 0.0 0.0 0.0 xyz
   end
   begin
      id 2
      name LeftUpLeg_dum
      direction 1.000000 0.000000 0.000000
      length 2.700595
      axis 0.0 0.0 0.0 xyz
   end
   begin
      id 3
      name RightUpLeg_dum
      direction -1.000000 0.000000 0.000000
      length 2.700595
      axis 0.0 0.0 0.0 xyz
   end
   begin
      id 4
      name Spine
      direction 0.000000 1.000000 0.000000
      length 0.000000
      axis 0.0 0.0 0.0 xyz
      dof rx ry rz
   end
   begin
      id 5
      name Spine_dum1
      direction 0.000000 1.000000 0.000000
      length 12.771951
      axis 0.0 0.0 0.0 xyz
   end
   begin
      id 6
      name Spine_dum2
      direction 0.000000 1.000000 0.000000
      length 7.400569
      axis 0.0 0.0 0.0 xyz
   end
   begin
      id 7
      name Spine_dum3
      direction 0.000000 1.000000 0.000000
      length 7.400569
      axis 0.0 0.0 0.0 xyz
   end
   begin
      id 8
      name Head
      direction 0.000000 1.000000 0.000000
      length 4.527550
      axis 0.0 0.0 0.0 xyz
      dof rx ry rz
   end
   begin
      id 9
      name LeftShoulder
      direction 1.000000 0.000000 0.000000
      length 8.349299
      axis 0.0 0.0 -90.0 xyz
      dof rx ry rz
   end
   begin
      id 10
      name LeftArm
      direction 1.000000 0.000000 0.000000
      length 11.334839
      axis 0.0 0.0 -90.0 xyz
      dof rx ry rz
   end
   begin
      id 11
      name LeftForeArm
      direction 1.000000 0.000000 0.000000
      length 9.694182
      axis 0.0 0.0 -90.0 xyz
      dof ry rz rx
   end
   begin
      id 12
      name LeftHand
      direction 0.000000 0.000000 0.000000
      length 0.000000
      axis 0.0 0.0 -90.0 xyz
      dof rx ry rz
   end
   begin
      id 13
      name LeftHand_dum1
      direction 0.000000 0.000000 0.000000
      length 0.000000
      axis 0.0 0.0 -90.0 xyz
   end
   begin
      id 14
      name LeftHand_dum2
      direction 1.000000 0.000000 0.000000
      length 3.937000
      axis 0.0 0.0 -90.0 xyz
   end
   begin
      id 15
      name LeftHandThumb1
      direction 0.000000 0.000000 1.000000
      length 3.937000
      axis 0.0 0.0 -90.0 xyz
      dof rx rz ry
   end
   begin
      id 16
      name RightShoulder
      direction -1.000000 0.000000 0.000000
      length 8.349299
      axis 0.0 0.0 90.0 xyz
      dof rx ry rz
   end
   begin
      id 17
      name RightArm
      direction -1.000000 0.000000 0.000000
      length 11.334839
      axis 0.0 0.0 90.0 xyz
      dof rx ry rz
   end
   begin
      id 18
      name RightForeArm
      direction -1.000000 0.000000 0.000000
      length 9.694182
      axis 0.0 0.0 90.0 xyz
      dof ry rz rx
   end
   begin
      id 19
      name RightHand
      direction 0.000000 0.000000 0.000000
      length 0.000000
      axis 0.0 0.0 90.0 xyz
      dof rx ry rz
   end
   begin
      id 20
      name RightHand_dum1
      direction 0.000000 0.000000 0.000000
      length 0.000000
      axis 0.0 0.0 90.0 xyz
   end
   begin
      id 21
      name RightHand_dum2
      direction -1.000000 0.000000 0.000000
      length 3.937000
      axis 0.0 0.0 90.0 xyz
   end
   begin
      id 22
      name RightHandThumb1
      direction 0.000000 0.000000 1.000000
      length 3.937000
      axis 0.0 0.0 90.0 xyz
      dof rx rz ry
   end
   begin
      id 23
      name LeftUpLeg
      direction 0.000000 -1.000000 0.000000
      length 16.757176
      axis 0.0 0.0 0.0 xyz
      dof rx ry rz
   end
   begin
      id 24
      name LeftLeg
      direction 0.000000 -1.000000 0.000000
      length 16.759153
      axis 0.0 0.0 0.0 xyz
      dof rx ry rz
   end
   begin
      id 25
      name LeftFoot
      direction 0.000000 -0.258819 0.965926
      length 5.841289
      axis 15.0 0.0 0.0 xyz
      dof rx ry rz
   end
   begin
      id 26
      name LeftToeBase
      direction 0.000000 0.000000 1.000000
      length 2.952750
      axis 0.0 0.0 0.0 xyz
      dof rx ry rz
   end
   begin
      id 27
      name RightUpLeg
      direction 0.000000 -1.000000 0.000000
      length 16.757176
      axis 0.0 0.0 0.0 xyz
      dof rx ry rz
   end
   begin
      id 28
      name RightLeg
      direction 0.000000 -1.000000 0.000000
      length 16.759153
      axis 0.0 0.0 0.0 xyz
      dof rx ry rz
   end
   begin
      id 29
      name RightFoot
      direction 0.000000 -0.258819 0.965926
      length 5.841289
      axis 15.0 0.0 0.0 xyz
      dof rx ry rz
   end
   begin
      id 30
      name RightToeBase
      direction 0.000000 0.000000 1.000000
      length 2.952750
      axis 0.0 0.0 0.0 xyz
      dof rx ry rz
   end
:hierarchy
   begin
      root Spine_dum LeftUpLeg_dum RightUpLeg_dum
      Spine_dum Spine
      LeftUpLeg_dum LeftUpLeg
      RightUpLeg_dum RightUpLeg
      Spine Spine_dum1 Spine_dum2 Spine_dum3
      Spine_dum1 Head
      Spine_dum2 LeftShoulder
      Spine_dum3 RightShoulder
      LeftShoulder LeftArm
      LeftArm LeftForeArm
      LeftForeArm LeftHand
      LeftHand LeftHand_dum1 LeftHand_dum2
      LeftHand_dum1 LeftHandThumb1
      RightShoulder RightArm
      RightArm RightForeArm
      RightForeArm RightHand
      RightHand RightHand_dum1 RightHand_dum2
      RightHand_dum1 RightHandThumb1
      LeftUpLeg LeftLeg
      LeftLeg LeftFoot
      LeftFoot LeftToeBase
      RightUpLeg RightLeg
      RightLeg RightFoot
      RightFoot RightToeBase
   end

# File created by Blade
# Date/Time:  Wed Jan 28 16:58:32 2015
# Frame Rate: 120.000 fps
#------------------------------------------------------
:FULLY-SPECIFIED
:DEGREES
3488
root 16.055419 37.571441 -16.230235 250.064419 28.571546 -128.415233
Spine 20.484173 -3.335255 6.471404
Head 23.328870 28.118569 49.259090
LeftShoulder -18.910902 -4.617532 41.557899
LeftArm 59.602591 -74.680461 -71.378655
LeftForeArm -33.549882 0.000000 107.298130
LeftHand -21.766985 -0.000000 21.451297
LeftHandThumb1 -26.253704 0.000000 33.147579
RightShoulder -30.845352 -16.025758 1.794690
RightArm 2.810910 -25.149309 73.806749
RightForeArm 7.994274 -0.000000 26.347678
RightHand -12.021579 -0.000000 30.093723
RightHandThumb1 -24.326973 -0.000000 -32.862282
LeftUpLeg -44.147508 32.649757 28.110595
LeftLeg 19.274951 -0.000000 -0.000000
LeftFoot -15.132463 17.804937 -14.412516
LeftToeBase 11.223538 -0.000000 -0.000000
RightUpLeg 17.609946 8.475165 -18.378522
RightLeg 138.039843 -0.000000 -0.000000
RightFoot 17.461443 -1.617014 1.837222
RightToeBase -5.601472 -0.000000 0.000000
3489
root 16.039602 37.549078 -16.270504 250.038559 28.843189 -128.481352
Spine 20.566931 -3.154791 6.353640
Head 23.210311 27.965434 48.849595
LeftShoulder -18.903525 -4.522609 41.394359
LeftArm 60.080223 -74.468658 -71.783667
LeftForeArm -33.607084 0.000000 107.394877
LeftHand -21.671831 -0.000000 21.501045
LeftHandThumb1 -26.253704 0.000000 33.147579
RightShoulder -30.855773 -15.798712 1.792459
RightArm 2.853347 -25.361264 73.900089
RightForeArm 7.907450 -0.000000 26.195608
RightHand -12.009977 -0.000000 30.076410
RightHandThumb1 -24.326973 -0.000000 -32.862282
LeftUpLeg -44.145424 32.425978 27.968097
LeftLeg 19.558030 -0.000000 -0.000000
LeftFoot -15.326903 17.995926 -14.357444
LeftToeBase 11.161457 -0.000000 -0.000000
RightUpLeg 17.394196 8.535852 -18.139194
RightLeg 138.237306 -0.000000 -0.000000
RightFoot 16.939877 -1.819088 1.493555
RightToeBase -5.403420 -0.000000 0.000000
3490
root 16.023470 37.529510 -16.310799 250.017720 29.110117 -128.524728
Spine 20.657274 -3.004227 6.303499
Head 23.103884 27.873072 48.361428
LeftShoulder -18.999117 -4.420669 41.241031
LeftArm 60.791260 -74.092240 -72.533460
LeftForeArm -33.695804 0.000000 107.492586
LeftHand -21.781738 -0.000000 21.274845
LeftHandThumb1 -26.253704 0.000000 33.147579
RightShoulder -30.858365 -15.565594 1.811423
RightArm 2.895841 -25.362334 73.977521
RightForeArm 7.680030 -0.000000 26.152077
RightHand -12.176546 -0.000000 30.132142
RightHandThumb1 -24.326973 -0.000000 -32.862282
LeftUpLeg -44.100603 32.220630 27.834101
LeftLeg 19.777202 -0.000000 -0.000000
LeftFoot -15.503259 18.192620 -14.337837
LeftToeBase 11.075332 -0.000000 -0.000000
RightUpLeg 17.136247 8.558201 -17.896530
RightLeg 138.457773 -0.000000 -0.000000
RightFoot 16.461663 -2.033105 1.205599
RightToeBase -5.486902 -0.000000 0.000000
3491
root 16.008392 37.514349 -16.352527 249.983531 29.342519 -128.577781
Spine 20.726366 -2.854106 6.336241
Head 23.063410 27.786483 47.931031
LeftShoulder -18.975494 -4.437878 41.111531
LeftArm 60.441178 -73.776799 -72.278669
LeftForeArm -33.848054 -0.000000 107.611818
LeftHand -21.691772 -0.000000 21.126979
LeftHandThumb1 -26.253704 0.000000 33.147579
RightShoulder -30.922946 -15.428409 1.905627
RightArm 3.165770 -25.470535 73.903882
RightForeArm 7.661151 -0.000000 26.008619
RightHand -12.319156 -0.000000 30.359055
RightHandThumb1 -24.326973 -0.000000 -32.862282
LeftUpLeg -44.057733 32.071408 27.669338
LeftLeg 19.925637 -0.000000 -0.000000
LeftFoot -15.632410 18.315560 -14.296221
LeftToeBase 11.019940 -0.000000 -0.000000
RightUpLeg 16.857795 8.521991 -17.609343
RightLeg 138.685417 -0.000000 -0.000000
RightFoot 16.008882 -2.221531 1.066080
RightToeBase -5.572343 -0.000000 0.000000
3492
root 15.994580 37.503545 -16.397432 249.961570 29.589724 -128.631614
Spine 20.762978 -2.695284 6.338065
Head 23.112907 27.698653 47.581187
LeftShoulder -18.963866 -4.233764 40.864329
LeftArm 60.679908 -73.490899 -72.480954
LeftForeArm -34.178339 -0.000000 107.713664
LeftHand -21.513135 0.000000 20.826929
LeftHandThumb1 -26.253704 0.000000 33.147579
RightShoulder -30.898091 -15.161265 2.070952
RightArm 3.208637 -25.455097 73.826872
RightForeArm 7.357097 -0.000000 25.965853
RightHand -12.303862 -0.000000 30.524582
RightHandThumb1 -24.326973 -0.000000 -32.862282
LeftUpLeg -43.987995 31.938885 27.478166
LeftLeg 20.013550 -0.000000 -0.000000
LeftFoot -15.736948 18.430948 -14.266995
LeftToeBase 10.962382 -0.000000 -0.000000
RightUpLeg 16.535589 8.451824 -17.328787
RightLeg 138.927060 -0.000000 -0.000000
RightFoot 15.607826 -2.394852 1.047890
RightToeBase -5.535081 -0.000000 0.000000
